<svg xmlns="http://www.w3.org/2000/svg" width="116" height="19" viewBox="0 0 116 19">
  <path d="M32.6003344,3.0332143 C32.6003344,3.0332143 31.2130291,3.6575 29.9977961,3.634881 C28.8236817,3.6113571 28.2448929,4.2130238 28.2448929,4.2130238 L28.2466807,4.2175476 C27.7456597,4.5830714 27.333133,5.2132381 27.0287661,5.895881 L27.0287661,5.599119 C27.0287661,4.7074762 26.3163419,3.9868333 25.4358678,3.9868333 C24.5558407,3.9868333 23.8447573,4.7074762 23.8447573,5.599119 L23.8447573,13.9957619 C23.8447573,14.8874048 24.5558407,15.6071429 25.4358678,15.6071429 C26.3163419,15.6071429 27.0287661,14.8874048 27.0287661,13.9957619 L27.0287661,10.009381 C27.257153,8.303 28.1175147,7.3326429 29.505267,7.0037619 C29.5839286,6.9856667 29.6599086,6.9612381 29.7349947,6.935 C29.7363355,6.9331905 29.7367825,6.9331905 29.7390172,6.9322857 C29.7412519,6.931381 29.7457213,6.931381 29.7488499,6.9300238 C32.9578874,5.9863571 32.6003344,3.0332143 32.6003344,3.0332143 Z M114.385649,15.4809286 L116,15.4809286 L116,0 L114.385649,0 L114.385649,15.4809286 Z M103.787333,6.6165238 C104.793845,6.1496667 105.799462,5.8112857 107.077267,5.8112857 C109.108614,5.8112857 110.302841,6.8282381 110.302841,8.8010714 L110.302841,9.1833333 C109.34013,8.9055714 108.355072,8.7160238 106.971789,8.7160238 C104.228464,8.7160238 102.342819,9.9460476 102.342819,12.2785238 C102.342819,14.5684762 104.374614,15.713 106.386743,15.713 C108.292053,15.713 109.549298,14.8231667 110.302841,13.826119 L110.302841,15.4809286 L111.854174,15.4809286 L111.854174,8.7793571 C111.854174,5.895881 110.198257,4.3686429 107.246211,4.3686429 C105.673872,4.3686429 104.500204,4.7291905 103.305977,5.2806429 L103.787333,6.6165238 Z M103.976389,12.2142857 C103.976389,10.8155238 105.108044,9.9256905 107.138945,9.9256905 C108.459656,9.9256905 109.528739,10.1586667 110.324741,10.3916429 L110.324741,11.451119 C110.324741,13.1900714 108.690724,14.4205476 106.700049,14.4205476 C105.234082,14.4205476 103.976389,13.6144048 103.976389,12.2142857 Z M98.740027,2.12121429 L100.584553,2.12121429 L100.584553,0.31892857 L98.740027,0.31892857 L98.740027,2.12121429 Z M98.844164,15.4809286 L100.458515,15.4809286 L100.458515,4.5170238 L98.844164,4.5170238 L98.844164,15.4809286 Z M92.666543,15.7347143 C94.699679,15.7347143 95.99849,14.8439762 97.086791,13.6144048 L96.061508,12.6381667 C95.201147,13.5709762 94.133851,14.2712619 92.751015,14.2712619 C90.488152,14.2712619 88.77011,12.384381 88.77011,9.9876667 C88.77011,7.6135714 90.446587,5.724881 92.646431,5.724881 C94.112845,5.724881 95.075556,6.4685952 95.935024,7.3796905 L97.004107,6.2347143 C95.99849,5.1535238 94.719791,4.2840476 92.666543,4.2840476 C89.503094,4.2840476 87.115534,6.9132857 87.115534,10.0306429 C87.115534,13.1267381 89.503094,15.7347143 92.666543,15.7347143 Z M80.246049,15.7347143 C83.514082,15.7347143 85.923989,13.106381 85.923989,9.9876667 C85.923989,6.8707619 83.534195,4.2840476 80.288061,4.2840476 C77.019581,4.2840476 74.63068,6.9132857 74.63068,10.0306429 C74.63068,13.148 76.999021,15.7347143 80.246049,15.7347143 Z M80.246049,5.724881 C82.529471,5.724881 84.268519,7.6352857 84.268519,10.0306429 C84.268519,12.384381 82.634055,14.2712619 80.288061,14.2712619 C78.004639,14.2712619 76.287044,12.3640238 76.287044,9.9876667 C76.287044,7.6135714 77.898714,5.724881 80.246049,5.724881 Z M69.50069,15.6921905 C71.658522,15.6921905 73.355557,14.483881 73.355557,12.4060952 L73.355557,12.3640238 C73.355557,10.3916429 71.55349,9.7334286 69.877461,9.2254048 C68.432053,8.7793571 67.091677,8.3762857 67.091677,7.3371667 L67.091677,7.2950952 C67.091677,6.3821905 67.908238,5.7031667 69.186043,5.7031667 C70.23412,5.7031667 71.385887,6.1080476 72.391505,6.7653571 L73.124489,5.5353333 C72.015181,4.7925238 70.547873,4.3256667 69.228949,4.3256667 C67.091677,4.3256667 65.541238,5.5774048 65.541238,7.4642857 L65.541238,7.5072619 C65.541238,9.5221667 67.426436,10.1152381 69.124365,10.6033571 C70.547873,11.0059762 71.825231,11.4303095 71.825231,12.5332143 L71.825231,12.5752857 C71.825231,13.6356667 70.883079,14.3142381 69.583821,14.3142381 C68.30691,14.3142381 67.007205,13.8053095 65.833091,12.9150238 L65.016976,14.0803571 C66.233103,15.0774048 67.949804,15.6921905 69.50069,15.6921905 Z M56.9434311,12.2568095 C56.9434311,14.8874048 58.2632483,15.6709286 60.211465,15.6709286 C60.90333,15.6709286 61.447257,15.5876905 62.034538,15.3533571 C62.474328,15.1823571 62.851546,14.7164048 62.851546,14.1441429 C62.851546,13.4022381 62.244153,12.8082619 61.531282,12.8082619 C61.469157,12.8082619 61.259095,12.8299762 61.154511,12.8299762 C60.442086,12.8299762 60.128334,12.4680714 60.128334,11.7270714 L60.128334,6.8707619 L61.531282,6.8707619 C62.285719,6.8707619 62.893559,6.2559762 62.893559,5.4923571 C62.893559,4.7291905 62.285719,4.1148571 61.531282,4.1148571 L60.128334,4.1148571 L60.128334,2.69347619 C60.128334,1.80228571 59.4159096,1.08164286 58.5354355,1.08164286 C57.6563023,1.08164286 56.9434311,1.80228571 56.9434311,2.69347619 L56.9434311,12.2568095 Z M55.3223756,13.9957619 L55.3223756,5.599119 C55.3223756,4.7074762 54.6099514,3.9868333 53.7303712,3.9868333 C52.8498971,3.9868333 52.1374729,4.7074762 52.1374729,5.599119 L52.1374729,10.4554286 C52.1374729,11.9804048 51.362477,12.7661905 50.147244,12.7661905 C48.9324579,12.7661905 48.2195868,11.9804048 48.2195868,10.4554286 L48.2195868,5.599119 C48.2195868,4.7074762 47.5080565,3.9868333 46.6275824,3.9868333 C45.7480023,3.9868333 45.0355781,4.7074762 45.0355781,5.599119 L45.0355781,11.4728333 C45.0355781,14.0803571 46.4398672,15.6921905 48.848433,15.6921905 C50.4618906,15.6921905 51.4044894,14.8231667 52.1374729,13.8690952 L52.1374729,13.9957619 C52.1374729,14.8874048 52.8498971,15.6071429 53.7303712,15.6071429 C54.6099514,15.6071429 55.3223756,14.8874048 55.3223756,13.9957619 Z M31.4601876,9.8614524 C31.4601876,13.1267381 34.0368033,15.7347143 37.5148993,15.7347143 C41.0126608,15.7347143 43.6107297,13.0846667 43.6107297,9.8184762 L43.6107297,9.7750476 C43.6107297,6.5106667 41.033667,3.9026905 37.5564648,3.9026905 C34.0573626,3.9026905 31.4601876,6.5527381 31.4601876,9.8184762 L31.4601876,9.8614524 Z M40.4691803,9.8614524 C40.4691803,11.5361667 39.3795378,12.9570952 37.5564648,12.9570952 C35.7964106,12.9570952 34.6026308,11.4940952 34.6026308,9.8184762 L34.6026308,9.7750476 C34.6026308,8.1007857 35.6922733,6.6807619 37.5148993,6.6807619 C39.2745066,6.6807619 40.4691803,8.1433095 40.4691803,9.8184762 L40.4691803,9.8614524 Z M10.5612194,5.599119 L10.5612194,17.3895238 C10.5612194,18.2798095 11.2727497,19 12.1523299,19 C13.0328039,19 13.7447812,18.2798095 13.7447812,17.3895238 L13.7447812,13.9957619 C14.4992179,14.9082143 15.5468479,15.6921905 17.2443304,15.6921905 C19.905418,15.6921905 22.3564433,13.6144048 22.3564433,9.8184762 L22.3564433,9.7750476 C22.3564433,5.9800238 19.8625117,3.9026905 17.2443304,3.9026905 C15.5893073,3.9026905 14.5202241,4.687119 13.7447812,5.7465952 L13.7447812,5.599119 C13.7447812,4.7074762 13.0328039,3.9868333 12.1523299,3.9868333 C11.2727497,3.9868333 10.5612194,4.7074762 10.5612194,5.599119 Z M19.1710937,9.8184762 C19.1710937,11.7270714 17.9147421,12.9570952 16.426875,12.9570952 C14.9390079,12.9570952 13.7041095,11.7053571 13.7041095,9.8184762 L13.7041095,9.7750476 C13.7041095,7.8895238 14.9390079,6.6377857 16.426875,6.6377857 C17.9147421,6.6377857 19.1710937,7.8895238 19.1710937,9.7750476 L19.1710937,9.8184762 Z M0.607393,14.3992857 C0.2717402,14.187119 0,13.8053095 0,13.2959286 C0,12.5752857 0.5434804,12.0238333 1.2567985,12.0238333 C1.4865263,12.0238333 1.7175948,12.087619 1.8847508,12.194381 C2.9533871,12.8734048 4.0224704,13.210881 4.9235037,13.210881 C5.8455433,13.210881 6.2634333,12.8734048 6.2634333,12.3640238 L6.2634333,12.3205952 C6.2634333,11.6207619 5.1737908,11.3873333 3.9379985,11.0059762 C2.3670003,10.5395714 0.5863868,9.7967619 0.5863868,7.5918571 L0.5863868,7.548881 C0.5863868,5.2372143 2.430019,3.9438571 4.693329,3.9438571 C5.8656557,3.9438571 7.0808886,4.2623333 8.1709781,4.8137857 C8.6313275,5.0472143 8.9249678,5.4710952 8.9249678,6.023 C8.9249678,6.7445476 8.3591403,7.2950952 7.6462692,7.2950952 C7.4165414,7.2950952 7.2694978,7.252119 7.0603293,7.1462619 C6.158849,6.701119 5.2998282,6.425619 4.6298634,6.425619 C3.8544205,6.425619 3.455749,6.7653571 3.455749,7.2100476 L3.455749,7.252119 C3.455749,7.8895238 4.5252791,8.1862857 5.7400652,8.6101667 C7.3110633,9.1394524 9.1345832,9.9035238 9.1345832,11.9804048 L9.1345832,12.0238333 C9.1345832,14.5472143 7.2694978,15.6921905 4.8399257,15.6921905 C3.455749,15.6921905 1.9692227,15.2900238 0.607393,14.3992857 Z"/>
</svg>
